<svg width="466" height="100" viewBox="0 0 466 100" fill="none" xmlns="http://www.w3.org/2000/svg">
<path d="M22.3926 23.9365H8.91602V32.4082H24.834V39H0.34668V3.45312H24.8828V10.0693H8.91602V17.5645H22.3926V23.9365ZM35.5029 12.584L35.7715 15.6846C37.5944 13.292 40.109 12.0957 43.3154 12.0957C46.0661 12.0957 48.1169 12.9176 49.4678 14.5615C50.835 16.2054 51.543 18.6794 51.5918 21.9834V39H43.3398V22.3252C43.3398 20.9906 43.0713 20.014 42.5342 19.3955C41.9971 18.7607 41.0205 18.4434 39.6045 18.4434C37.9932 18.4434 36.7969 19.0781 36.0156 20.3477V39H27.7881V12.584H35.5029ZM65.0195 12.584V39.9033C65.0033 43.0283 64.1081 45.4372 62.334 47.1299C60.5599 48.8226 58.0859 49.6689 54.9121 49.6689C53.5449 49.6689 52.251 49.5306 51.0303 49.2539V43.0283C51.9743 43.1748 52.7474 43.248 53.3496 43.248C55.6283 43.248 56.7676 42.1169 56.7676 39.8545V12.584H65.0195ZM56.1572 5.77246C56.1572 4.60059 56.5804 3.6403 57.4268 2.8916C58.2731 2.1429 59.3717 1.76855 60.7227 1.76855C62.0736 1.76855 63.1722 2.1429 64.0186 2.8916C64.8649 3.6403 65.2881 4.60059 65.2881 5.77246C65.2881 6.94434 64.8649 7.90462 64.0186 8.65332C63.1722 9.40202 62.0736 9.77637 60.7227 9.77637C59.3717 9.77637 58.2731 9.40202 57.4268 8.65332C56.5804 7.90462 56.1572 6.94434 56.1572 5.77246ZM68.6572 25.5479C68.6572 22.9111 69.1699 20.5674 70.1953 18.5166C71.2207 16.4495 72.6937 14.8626 74.6143 13.7559C76.5348 12.6491 78.7891 12.0957 81.377 12.0957C85.332 12.0957 88.4489 13.3245 90.7275 15.7822C93.0062 18.2236 94.1455 21.5521 94.1455 25.7676V26.0605C94.1455 30.1784 92.998 33.4499 90.7031 35.875C88.4245 38.2839 85.332 39.4883 81.4258 39.4883C77.666 39.4883 74.6468 38.3652 72.3682 36.1191C70.0895 33.8568 68.8607 30.7969 68.6816 26.9395L68.6572 25.5479ZM76.8848 26.0605C76.8848 28.502 77.2673 30.2923 78.0322 31.4316C78.7972 32.571 79.9284 33.1406 81.4258 33.1406C84.3555 33.1406 85.8529 30.8864 85.918 26.3779V25.5479C85.918 20.8115 84.4043 18.4434 81.377 18.4434C78.6263 18.4434 77.137 20.486 76.9092 24.5713L76.8848 26.0605ZM107.939 27.4766L112.334 12.584H121.147L110.381 43.4189L109.917 44.542C108.387 47.96 105.685 49.6689 101.812 49.6689C100.737 49.6689 99.6061 49.5062 98.418 49.1807V43.2969H99.4922C100.648 43.2969 101.527 43.126 102.129 42.7842C102.747 42.4587 103.203 41.8646 103.496 41.002L104.155 39.2441L94.9756 12.584H103.765L107.939 27.4766ZM146.318 27.4766L150.713 12.584H159.526L148.76 43.4189L148.296 44.542C146.766 47.96 144.064 49.6689 140.19 49.6689C139.116 49.6689 137.985 49.5062 136.797 49.1807V43.2969H137.871C139.027 43.2969 139.906 43.126 140.508 42.7842C141.126 42.4587 141.582 41.8646 141.875 41.002L142.534 39.2441L133.354 12.584H142.144L146.318 27.4766ZM160.259 25.5479C160.259 22.9111 160.771 20.5674 161.797 18.5166C162.822 16.4495 164.295 14.8626 166.216 13.7559C168.136 12.6491 170.391 12.0957 172.979 12.0957C176.934 12.0957 180.05 13.3245 182.329 15.7822C184.608 18.2236 185.747 21.5521 185.747 25.7676V26.0605C185.747 30.1784 184.6 33.4499 182.305 35.875C180.026 38.2839 176.934 39.4883 173.027 39.4883C169.268 39.4883 166.248 38.3652 163.97 36.1191C161.691 33.8568 160.462 30.7969 160.283 26.9395L160.259 25.5479ZM168.486 26.0605C168.486 28.502 168.869 30.2923 169.634 31.4316C170.399 32.571 171.53 33.1406 173.027 33.1406C175.957 33.1406 177.454 30.8864 177.52 26.3779V25.5479C177.52 20.8115 176.006 18.4434 172.979 18.4434C170.228 18.4434 168.739 20.486 168.511 24.5713L168.486 26.0605ZM205.107 36.1436C203.366 38.3734 201.014 39.4883 198.052 39.4883C195.155 39.4883 192.957 38.6501 191.46 36.9736C189.979 35.2809 189.238 32.8558 189.238 29.6982V12.584H197.466V29.7471C197.466 32.0094 198.564 33.1406 200.762 33.1406C202.65 33.1406 203.993 32.4652 204.79 31.1143V12.584H213.066V39H205.352L205.107 36.1436ZM233.574 20.0303L230.864 19.835C228.276 19.835 226.616 20.6488 225.884 22.2764V39H217.656V12.584H225.371L225.64 15.9775C227.023 13.3896 228.952 12.0957 231.426 12.0957C232.305 12.0957 233.07 12.1934 233.721 12.3887L233.574 20.0303ZM263.872 39C263.579 38.4629 263.319 37.6735 263.091 36.6318C261.577 38.5361 259.461 39.4883 256.743 39.4883C254.253 39.4883 252.137 38.7396 250.396 37.2422C248.654 35.7285 247.783 33.8324 247.783 31.5537C247.783 28.6891 248.841 26.5244 250.957 25.0596C253.073 23.5947 256.149 22.8623 260.186 22.8623H262.725V21.4707C262.725 19.0456 261.675 17.833 259.575 17.833C257.622 17.833 256.646 18.7933 256.646 20.7139H248.418C248.418 18.1585 249.5 16.0833 251.665 14.4883C253.846 12.8932 256.621 12.0957 259.99 12.0957C263.359 12.0957 266.021 12.9176 267.974 14.5615C269.927 16.2054 270.928 18.4596 270.977 21.3242V33.0186C271.009 35.4437 271.383 37.2992 272.1 38.585V39H263.872ZM258.721 33.6289C259.746 33.6289 260.592 33.4092 261.26 32.9697C261.943 32.5303 262.432 32.0339 262.725 31.4805V27.2568H260.332C257.467 27.2568 256.035 28.5426 256.035 31.1143C256.035 31.863 256.287 32.4733 256.792 32.9453C257.297 33.401 257.939 33.6289 258.721 33.6289ZM277.373 39V18.2969H273.54V12.584H277.373V10.4844C277.373 7.47331 278.26 5.1377 280.034 3.47754C281.808 1.81738 284.299 0.987305 287.505 0.987305C288.677 0.987305 289.963 1.1582 291.362 1.5L291.387 7.55469C290.882 7.4082 290.207 7.33496 289.36 7.33496C286.87 7.33496 285.625 8.40918 285.625 10.5576V12.584H290.776V18.2969H285.625V39H277.373ZM303.252 6.0166V12.584H307.598V18.2969H303.252V30.3818C303.252 31.3747 303.431 32.0664 303.789 32.457C304.147 32.8477 304.855 33.043 305.913 33.043C306.727 33.043 307.41 32.9941 307.964 32.8965V38.7803C306.483 39.2523 304.937 39.4883 303.325 39.4883C300.493 39.4883 298.402 38.821 297.051 37.4863C295.7 36.1517 295.024 34.1253 295.024 31.4072V18.2969H291.655V12.584H295.024V6.0166H303.252ZM323.638 39.4883C319.585 39.4883 316.305 38.2839 313.799 35.875C311.292 33.4499 310.039 30.3005 310.039 26.4268V25.7432C310.039 23.0413 310.535 20.6569 311.528 18.5898C312.537 16.5228 314.002 14.9277 315.923 13.8047C317.843 12.6654 320.122 12.0957 322.759 12.0957C326.47 12.0957 329.399 13.2513 331.548 15.5625C333.696 17.8574 334.771 21.0638 334.771 25.1816V28.3799H318.413C318.706 29.861 319.349 31.0247 320.342 31.8711C321.335 32.7174 322.62 33.1406 324.199 33.1406C326.803 33.1406 328.838 32.2292 330.303 30.4062L334.062 34.8496C333.037 36.2656 331.58 37.3968 329.692 38.2432C327.821 39.0732 325.802 39.4883 323.638 39.4883ZM322.71 18.4434C320.301 18.4434 318.869 20.0384 318.413 23.2285H326.714V22.5938C326.746 21.2754 326.413 20.2581 325.713 19.542C325.013 18.8096 324.012 18.4434 322.71 18.4434ZM354.082 20.0303L351.372 19.835C348.784 19.835 347.124 20.6488 346.392 22.2764V39H338.164V12.584H345.879L346.147 15.9775C347.531 13.3896 349.46 12.0957 351.934 12.0957C352.812 12.0957 353.577 12.1934 354.229 12.3887L354.082 20.0303ZM364.604 12.584L364.873 15.6846C366.696 13.292 369.211 12.0957 372.417 12.0957C375.168 12.0957 377.218 12.9176 378.569 14.5615C379.937 16.2054 380.645 18.6794 380.693 21.9834V39H372.441V22.3252C372.441 20.9906 372.173 20.014 371.636 19.3955C371.099 18.7607 370.122 18.4434 368.706 18.4434C367.095 18.4434 365.898 19.0781 365.117 20.3477V39H356.89V12.584H364.604ZM384.233 25.5479C384.233 22.9111 384.746 20.5674 385.771 18.5166C386.797 16.4495 388.27 14.8626 390.19 13.7559C392.111 12.6491 394.365 12.0957 396.953 12.0957C400.908 12.0957 404.025 13.3245 406.304 15.7822C408.582 18.2236 409.722 21.5521 409.722 25.7676V26.0605C409.722 30.1784 408.574 33.4499 406.279 35.875C404.001 38.2839 400.908 39.4883 397.002 39.4883C393.242 39.4883 390.223 38.3652 387.944 36.1191C385.666 33.8568 384.437 30.7969 384.258 26.9395L384.233 25.5479ZM392.461 26.0605C392.461 28.502 392.843 30.2923 393.608 31.4316C394.373 32.571 395.505 33.1406 397.002 33.1406C399.932 33.1406 401.429 30.8864 401.494 26.3779V25.5479C401.494 20.8115 399.98 18.4434 396.953 18.4434C394.202 18.4434 392.713 20.486 392.485 24.5713L392.461 26.0605ZM412.31 25.5479C412.31 22.9111 412.822 20.5674 413.848 18.5166C414.873 16.4495 416.346 14.8626 418.267 13.7559C420.187 12.6491 422.441 12.0957 425.029 12.0957C428.984 12.0957 432.101 13.3245 434.38 15.7822C436.659 18.2236 437.798 21.5521 437.798 25.7676V26.0605C437.798 30.1784 436.65 33.4499 434.355 35.875C432.077 38.2839 428.984 39.4883 425.078 39.4883C421.318 39.4883 418.299 38.3652 416.021 36.1191C413.742 33.8568 412.513 30.7969 412.334 26.9395L412.31 25.5479ZM420.537 26.0605C420.537 28.502 420.92 30.2923 421.685 31.4316C422.45 32.571 423.581 33.1406 425.078 33.1406C428.008 33.1406 429.505 30.8864 429.57 26.3779V25.5479C429.57 20.8115 428.057 18.4434 425.029 18.4434C422.279 18.4434 420.789 20.486 420.562 24.5713L420.537 26.0605ZM448.979 12.584L449.248 15.6846C451.071 13.292 453.586 12.0957 456.792 12.0957C459.543 12.0957 461.593 12.9176 462.944 14.5615C464.312 16.2054 465.02 18.6794 465.068 21.9834V39H456.816V22.3252C456.816 20.9906 456.548 20.014 456.011 19.3955C455.474 18.7607 454.497 18.4434 453.081 18.4434C451.47 18.4434 450.273 19.0781 449.492 20.3477V39H441.265V12.584H448.979ZM62.3096 66.0166V72.584H66.6553V78.2969H62.3096V90.3818C62.3096 91.3747 62.4886 92.0664 62.8467 92.457C63.2048 92.8477 63.9128 93.043 64.9707 93.043C65.7845 93.043 66.4681 92.9941 67.0215 92.8965V98.7803C65.5404 99.2523 63.9941 99.4883 62.3828 99.4883C59.5508 99.4883 57.4593 98.821 56.1084 97.4863C54.7575 96.1517 54.082 94.1253 54.082 91.4072V78.2969H50.7129V72.584H54.082V66.0166H62.3096ZM82.6953 99.4883C78.6426 99.4883 75.363 98.2839 72.8564 95.875C70.3499 93.4499 69.0967 90.3005 69.0967 86.4268V85.7432C69.0967 83.0413 69.5931 80.6569 70.5859 78.5898C71.5951 76.5228 73.0599 74.9277 74.9805 73.8047C76.901 72.6654 79.1797 72.0957 81.8164 72.0957C85.5273 72.0957 88.457 73.2513 90.6055 75.5625C92.7539 77.8574 93.8281 81.0638 93.8281 85.1816V88.3799H77.4707C77.7637 89.861 78.4066 91.0247 79.3994 91.8711C80.3923 92.7174 81.6781 93.1406 83.2568 93.1406C85.861 93.1406 87.8955 92.2292 89.3604 90.4062L93.1201 94.8496C92.0947 96.2656 90.638 97.3968 88.75 98.2432C86.8783 99.0732 84.86 99.4883 82.6953 99.4883ZM81.7676 78.4434C79.3587 78.4434 77.9264 80.0384 77.4707 83.2285H85.7715V82.5938C85.804 81.2754 85.4704 80.2581 84.7705 79.542C84.0706 78.8096 83.0697 78.4434 81.7676 78.4434ZM112.041 99C111.748 98.4629 111.488 97.6735 111.26 96.6318C109.746 98.5361 107.63 99.4883 104.912 99.4883C102.422 99.4883 100.306 98.7396 98.5645 97.2422C96.8229 95.7285 95.9521 93.8324 95.9521 91.5537C95.9521 88.6891 97.0101 86.5244 99.126 85.0596C101.242 83.5947 104.318 82.8623 108.354 82.8623H110.894V81.4707C110.894 79.0456 109.844 77.833 107.744 77.833C105.791 77.833 104.814 78.7933 104.814 80.7139H96.5869C96.5869 78.1585 97.6693 76.0833 99.834 74.4883C102.015 72.8932 104.79 72.0957 108.159 72.0957C111.528 72.0957 114.189 72.9176 116.143 74.5615C118.096 76.2054 119.097 78.4596 119.146 81.3242V93.0186C119.178 95.4437 119.552 97.2992 120.269 98.585V99H112.041ZM106.89 93.6289C107.915 93.6289 108.761 93.4092 109.429 92.9697C110.112 92.5303 110.601 92.0339 110.894 91.4805V87.2568H108.501C105.636 87.2568 104.204 88.5426 104.204 91.1143C104.204 91.863 104.456 92.4733 104.961 92.9453C105.465 93.401 106.108 93.6289 106.89 93.6289ZM158.989 88.1602L161.65 72.584H169.536L163.311 99H156.353L151.982 83.3262L147.588 99H140.63L134.404 72.584H142.29L144.902 88.5264L149.102 72.584H154.839L158.989 88.1602ZM181.182 99H172.93V72.584H181.182V99ZM172.441 65.7725C172.441 64.6006 172.865 63.6403 173.711 62.8916C174.557 62.1429 175.656 61.7686 177.007 61.7686C178.358 61.7686 179.456 62.1429 180.303 62.8916C181.149 63.6403 181.572 64.6006 181.572 65.7725C181.572 66.9443 181.149 67.9046 180.303 68.6533C179.456 69.402 178.358 69.7764 177.007 69.7764C175.656 69.7764 174.557 69.402 173.711 68.6533C172.865 67.9046 172.441 66.9443 172.441 65.7725ZM195.854 66.0166V72.584H200.2V78.2969H195.854V90.3818C195.854 91.3747 196.034 92.0664 196.392 92.457C196.75 92.8477 197.458 93.043 198.516 93.043C199.329 93.043 200.013 92.9941 200.566 92.8965V98.7803C199.085 99.2523 197.539 99.4883 195.928 99.4883C193.096 99.4883 191.004 98.821 189.653 97.4863C188.302 96.1517 187.627 94.1253 187.627 91.4072V78.2969H184.258V72.584H187.627V66.0166H195.854ZM211.504 75.416C213.262 73.2025 215.508 72.0957 218.242 72.0957C221.156 72.0957 223.353 72.9583 224.834 74.6836C226.315 76.4089 227.072 78.9561 227.104 82.3252V99H218.853V82.5205C218.853 81.1208 218.568 80.0954 217.998 79.4443C217.428 78.777 216.46 78.4434 215.093 78.4434C213.4 78.4434 212.204 78.9805 211.504 80.0547V99H203.276V61.5H211.504V75.416ZM259.014 99C258.721 98.4629 258.46 97.6735 258.232 96.6318C256.719 98.5361 254.603 99.4883 251.885 99.4883C249.395 99.4883 247.279 98.7396 245.537 97.2422C243.796 95.7285 242.925 93.8324 242.925 91.5537C242.925 88.6891 243.983 86.5244 246.099 85.0596C248.215 83.5947 251.291 82.8623 255.327 82.8623H257.866V81.4707C257.866 79.0456 256.816 77.833 254.717 77.833C252.764 77.833 251.787 78.7933 251.787 80.7139H243.56C243.56 78.1585 244.642 76.0833 246.807 74.4883C248.988 72.8932 251.763 72.0957 255.132 72.0957C258.501 72.0957 261.162 72.9176 263.115 74.5615C265.068 76.2054 266.069 78.4596 266.118 81.3242V93.0186C266.151 95.4437 266.525 97.2992 267.241 98.585V99H259.014ZM253.862 93.6289C254.888 93.6289 255.734 93.4092 256.401 92.9697C257.085 92.5303 257.573 92.0339 257.866 91.4805V87.2568H255.474C252.609 87.2568 251.177 88.5426 251.177 91.1143C251.177 91.863 251.429 92.4733 251.934 92.9453C252.438 93.401 253.081 93.6289 253.862 93.6289ZM296.978 91.5781C296.978 90.8783 296.611 90.3167 295.879 89.8936C295.146 89.4704 293.755 89.0309 291.704 88.5752C289.653 88.1195 287.961 87.5254 286.626 86.793C285.291 86.0443 284.274 85.141 283.574 84.083C282.874 83.0251 282.524 81.8125 282.524 80.4453C282.524 78.0202 283.525 76.0264 285.527 74.4639C287.529 72.8851 290.15 72.0957 293.389 72.0957C296.872 72.0957 299.671 72.8851 301.787 74.4639C303.903 76.0426 304.961 78.1178 304.961 80.6895H296.709C296.709 78.5736 295.594 77.5156 293.364 77.5156C292.502 77.5156 291.777 77.7598 291.191 78.248C290.605 78.7201 290.312 79.3141 290.312 80.0303C290.312 80.7627 290.671 81.3568 291.387 81.8125C292.103 82.2682 293.242 82.6426 294.805 82.9355C296.383 83.2285 297.767 83.5785 298.955 83.9854C302.926 85.3525 304.912 87.8021 304.912 91.334C304.912 93.7428 303.838 95.7041 301.689 97.2178C299.557 98.7314 296.79 99.4883 293.389 99.4883C291.126 99.4883 289.108 99.0814 287.334 98.2676C285.56 97.4538 284.176 96.347 283.184 94.9473C282.191 93.5475 281.694 92.0745 281.694 90.5283H289.385C289.417 91.749 289.824 92.6442 290.605 93.2139C291.387 93.7673 292.388 94.0439 293.608 94.0439C294.731 94.0439 295.57 93.8161 296.123 93.3604C296.693 92.9046 296.978 92.3105 296.978 91.5781ZM316.338 72.584L316.606 75.6846C318.429 73.292 320.944 72.0957 324.15 72.0957C326.901 72.0957 328.952 72.9176 330.303 74.5615C331.67 76.2054 332.378 78.6794 332.427 81.9834V99H324.175V82.3252C324.175 80.9906 323.906 80.014 323.369 79.3955C322.832 78.7607 321.855 78.4434 320.439 78.4434C318.828 78.4434 317.632 79.0781 316.851 80.3477V99H308.623V72.584H316.338ZM351.885 99C351.592 98.4629 351.331 97.6735 351.104 96.6318C349.59 98.5361 347.474 99.4883 344.756 99.4883C342.266 99.4883 340.15 98.7396 338.408 97.2422C336.667 95.7285 335.796 93.8324 335.796 91.5537C335.796 88.6891 336.854 86.5244 338.97 85.0596C341.086 83.5947 344.162 82.8623 348.198 82.8623H350.737V81.4707C350.737 79.0456 349.688 77.833 347.588 77.833C345.635 77.833 344.658 78.7933 344.658 80.7139H336.431C336.431 78.1585 337.513 76.0833 339.678 74.4883C341.859 72.8932 344.634 72.0957 348.003 72.0957C351.372 72.0957 354.033 72.9176 355.986 74.5615C357.939 76.2054 358.94 78.4596 358.989 81.3242V93.0186C359.022 95.4437 359.396 97.2992 360.112 98.585V99H351.885ZM346.733 93.6289C347.759 93.6289 348.605 93.4092 349.272 92.9697C349.956 92.5303 350.444 92.0339 350.737 91.4805V87.2568H348.345C345.48 87.2568 344.048 88.5426 344.048 91.1143C344.048 91.863 344.3 92.4733 344.805 92.9453C345.309 93.401 345.952 93.6289 346.733 93.6289ZM374.736 93.1406C375.892 93.1406 376.787 92.8314 377.422 92.2129C378.057 91.5781 378.366 90.6992 378.35 89.5762H386.064C386.064 92.4733 385.023 94.8496 382.939 96.7051C380.872 98.5605 378.203 99.4883 374.932 99.4883C371.09 99.4883 368.063 98.2839 365.85 95.875C363.636 93.4661 362.529 90.1296 362.529 85.8652V85.5234C362.529 82.8542 363.018 80.5023 363.994 78.4678C364.987 76.417 366.411 74.8464 368.267 73.7559C370.122 72.6491 372.319 72.0957 374.858 72.0957C378.293 72.0957 381.019 73.0479 383.037 74.9521C385.055 76.8564 386.064 79.4362 386.064 82.6914H378.35C378.35 81.3242 378.016 80.2744 377.349 79.542C376.681 78.8096 375.786 78.4434 374.663 78.4434C372.531 78.4434 371.286 79.8024 370.928 82.5205C370.814 83.3831 370.757 84.5713 370.757 86.085C370.757 88.738 371.074 90.5771 371.709 91.6025C372.344 92.6279 373.353 93.1406 374.736 93.1406ZM400.151 89.1611L397.832 91.4805V99H389.604V61.4756H397.832V81.3975L398.662 80.2988L404.863 72.584H414.727L405.474 83.4482L415.337 99H405.913L400.151 89.1611Z" fill="#0F2336"/>
</svg>
